<svg width="24" height="24" viewBox="0 0 24 24" fill="none" xmlns="http://www.w3.org/2000/svg">
<path d="M12 4.49805C13.2076 4.49805 16.2878 4.53945 17.9307 5.35645C19.0437 5.91111 19.2364 6.33634 19.8789 7.75586C19.9432 7.89791 20.0122 8.0498 20.0869 8.21289C20.0921 8.22461 20.0974 8.2368 20.1025 8.24805L20.5 9L21 9.5L21.3467 9.66406C21.3753 9.67644 22.7359 10.2661 22.875 10.498C23.0156 10.7333 23.25 12.046 23.25 14.248C23.25 16.4511 23.0625 18.748 23.0625 18.748H22.5C22.5 19.357 22.4061 19.498 22.2188 19.498H18.375C18.0938 19.498 18 19.404 18 18.748H6C5.99997 19.4039 5.90608 19.498 5.625 19.498H1.875C1.5938 19.498 1.49711 19.404 1.49707 18.748H0.9375C0.9375 18.748 0.75002 16.4979 0.75 14.248C0.75 11.9985 0.937535 10.6859 1.125 10.498C1.31114 10.3119 2.63414 9.67331 2.65332 9.66406L3 9.5L3.5 9L3.89551 8.24805C3.89848 8.24272 3.90151 8.237 3.9043 8.23242C3.9098 8.22337 3.91406 8.21631 3.91406 8.21289C4.06956 7.89976 4.19941 7.62889 4.3125 7.39258C4.89773 6.16971 5.04307 5.86699 6.07031 5.35645C7.71188 4.53941 10.7925 4.49805 12 4.49805ZM6 12C4.89543 12 4 12.8954 4 14C4 15.1046 4.89543 16 6 16C7.10457 16 8 15.1046 8 14C8 12.8954 7.10457 12 6 12ZM18 12C16.8954 12 16 12.8954 16 14C16 15.1046 16.8954 16 18 16C19.1046 16 20 15.1046 20 14C20 12.8954 19.1046 12 18 12ZM12 5.99414C10.2235 5.99414 7.93647 6.24166 6.83301 6.79102C6.06941 7.17117 5.64062 8.07324 5.26562 8.87012C5.21492 8.97752 5.17306 9.0831 5.13281 9.18555C5.07828 9.32437 5.02543 9.45794 4.95508 9.58301C5.1066 9.58956 5.25875 9.58784 5.41016 9.5791H18.5889C18.6237 9.58031 18.6558 9.58195 18.6855 9.58301C18.8748 9.58971 18.9669 9.59234 19.0479 9.58789C18.9747 9.46036 18.9208 9.32455 18.8652 9.18262C18.8255 9.08108 18.7846 8.97658 18.7344 8.87012C18.3575 8.07377 17.9305 7.17122 17.167 6.79102C16.0636 6.23978 13.7765 5.99415 12 5.99414Z" fill="black"/>
</svg>
