<svg width="36" height="36" viewBox="0 0 36 36" fill="none" xmlns="http://www.w3.org/2000/svg">
<path d="M31.26 6.915C30.4939 6.14851 29.5842 5.54047 28.583 5.12563C27.5818 4.71078 26.5087 4.49726 25.425 4.49726C24.3413 4.49726 23.2682 4.71078 22.267 5.12563C21.2658 5.54047 20.3561 6.14851 19.59 6.915L18 8.505L16.41 6.915C14.8625 5.36746 12.7635 4.49806 10.575 4.49806C8.38645 4.49806 6.28754 5.36746 4.74 6.915C3.19246 8.46254 2.32306 10.5614 2.32306 12.75C2.32306 14.9385 3.19246 17.0375 4.74 18.585L18 31.845L31.26 18.585C32.0265 17.8189 32.6345 16.9092 33.0494 15.908C33.4642 14.9068 33.6777 13.8337 33.6777 12.75C33.6777 11.6663 33.4642 10.5932 33.0494 9.59197C32.6345 8.59078 32.0265 7.68113 31.26 6.915Z" fill="black" stroke="black" stroke-width="3" stroke-linecap="round" stroke-linejoin="round"/>
</svg>
