<svg width="24" height="24" viewBox="0 0 24 24" fill="none" xmlns="http://www.w3.org/2000/svg">
<path d="M12.0001 1.99948C15.9152 1.99948 19.0001 4.84776 19.0001 8.24948C19.0001 9.65307 18.5588 11.2219 17.8692 12.8081C17.1818 14.389 16.2615 15.9559 15.3341 17.3471C14.4074 18.7371 13.4795 19.9435 12.7833 20.8022C12.4669 21.1924 12.198 21.5095 12.0001 21.7397C11.8022 21.5095 11.5332 21.1924 11.2169 20.8022C10.5206 19.9435 9.59274 18.7371 8.66609 17.3471C7.73863 15.9559 6.81833 14.389 6.13094 12.8081C5.44132 11.2219 5.00008 9.65307 5.00008 8.24948C5.00008 4.84776 8.08491 1.99948 12.0001 1.99948ZM13.3399 5.76608C12.7004 5.50119 11.9963 5.43186 11.3175 5.56686C10.6385 5.70191 10.015 6.03538 9.52547 6.52487C9.03598 7.01435 8.70251 7.63793 8.56746 8.31686C8.43246 8.99574 8.50179 9.69983 8.76668 10.3393C9.03161 10.9787 9.4803 11.5251 10.0557 11.9096C10.6313 12.2942 11.3079 12.4995 12.0001 12.4995H12.0011C12.9287 12.4983 13.8178 12.1291 14.4737 11.4731C15.1297 10.8172 15.4989 9.9281 15.5001 9.00045V8.99948C15.5001 8.30729 15.2948 7.63069 14.9102 7.05514C14.5257 6.4797 13.9793 6.03101 13.3399 5.76608Z" fill="black" stroke="black"/>
</svg>
