<svg width="49" height="36" viewBox="0 0 49 36" fill="none" xmlns="http://www.w3.org/2000/svg">
<path fill-rule="evenodd" clip-rule="evenodd" d="M13.9555 19.6605C14.5499 19.6606 15.0318 20.1287 15.0318 20.706V24.9323C15.0317 25.5096 14.5498 25.9777 13.9555 25.9778H9.12205C8.52771 25.9778 8.04589 25.5096 8.04577 24.9323V20.706C8.04577 20.1286 8.52764 19.6605 9.12205 19.6605H13.9555ZM9.24164 24.8162H13.8359V20.8222H9.24164V24.8162Z" fill="black"/>
<path fill-rule="evenodd" clip-rule="evenodd" d="M23.3646 19.6605C23.959 19.6606 24.4409 20.1287 24.4409 20.706V24.9323C24.4408 25.5096 23.9589 25.9777 23.3646 25.9778H18.5311C17.9368 25.9778 17.455 25.5096 17.4549 24.9323V20.706C17.4549 20.1286 17.9367 19.6605 18.5311 19.6605H23.3646ZM18.6507 24.8162H23.245V20.8222H18.6507V24.8162Z" fill="black"/>
<path fill-rule="evenodd" clip-rule="evenodd" d="M38.4368 0C39.3942 6.16248e-05 40.2762 0.505617 40.7394 1.31954L48.819 15.5195C49.3474 16.4486 48.6556 17.5878 47.5628 17.5878H46.4856V29.3982C46.4856 30.8096 45.3077 31.9538 43.8547 31.9538H39.2076C38.9739 32.37 38.7454 32.7641 38.5265 33.1309C38.4803 33.2083 38.4349 33.2846 38.3896 33.3596C38.1846 33.6991 37.9896 34.0128 37.8099 34.2966C37.6031 34.6232 37.4165 34.9103 37.2568 35.151C37.2239 35.2006 37.1916 35.2479 37.1611 35.2935C36.8636 35.7382 36.6825 35.9913 36.6762 36C36.6646 35.9839 35.5647 34.4501 34.2896 32.2088C34.2418 32.1249 34.1944 32.0396 34.1462 31.9538H5.85676C4.40383 31.9537 3.22584 30.8096 3.22584 29.3982V17.5878H1.67727C0.549152 17.5877 -0.180667 16.5661 0.0390216 15.6094C0.0474796 15.5725 0.0571449 15.5357 0.0684513 15.4991C0.0797277 15.4626 0.0925861 15.4263 0.106757 15.3902C0.163543 15.2454 0.243874 15.1042 0.349668 14.9705L11.2583 1.18023C11.8107 0.481959 12.6475 0.0548207 13.5468 0.00499137C13.5766 0.0032712 13.6065 0.00315998 13.6365 0.0022688C13.6655 0.00147417 13.6946 1.93712e-06 13.7238 0H38.4368ZM5.61758 29.3982C5.61758 29.5265 5.72475 29.6305 5.85676 29.6306H26.8373V17.5882L26.7103 17.5887L24.3937 17.5905L24.3956 17.5878H5.61758V29.3982ZM29.2291 16.7937V29.6306H32.926C32.5552 28.8698 32.196 28.0739 31.8717 27.2619C31.8488 27.2047 31.8264 27.1473 31.8039 27.09C31.551 26.4453 31.3206 25.7915 31.1233 25.1383C31.0258 24.8155 30.9365 24.4928 30.8566 24.1714C30.8172 24.0128 30.7801 23.8545 30.7454 23.6967C30.7155 23.5607 30.6874 23.425 30.6613 23.2897C30.6381 23.1693 30.6165 23.0491 30.5964 22.9294C30.5717 22.7826 30.5484 22.6366 30.5287 22.4911C30.4585 21.9741 30.4207 21.4662 30.4207 20.9728C30.4208 20.3919 30.4827 19.8273 30.5983 19.2866C30.6292 19.1417 30.6633 18.9983 30.702 18.8569C30.7172 18.8011 30.7332 18.7456 30.7496 18.6904C30.7824 18.5803 30.8174 18.4713 30.8547 18.3637C30.8734 18.3097 30.8928 18.256 30.9126 18.2026C30.9522 18.0963 30.9939 17.9913 31.0378 17.8877C31.0818 17.784 31.128 17.6818 31.1761 17.581C31.2002 17.5304 31.2247 17.4801 31.2499 17.4303C32.3299 15.294 34.3564 13.8547 36.6767 13.8547L36.8378 13.8569L36.998 13.8637C37.0096 13.8644 37.0211 13.8653 37.0326 13.866C37.1268 13.872 37.2204 13.8803 37.3134 13.891C37.334 13.8933 37.3545 13.8965 37.375 13.8991C37.4053 13.903 37.4355 13.9066 37.4657 13.9109C37.4847 13.9137 37.5037 13.9166 37.5226 13.9196C37.711 13.9486 37.8968 13.9871 38.0795 14.0348C38.0952 14.0389 38.1109 14.0433 38.1267 14.0475C38.2079 14.0695 38.2887 14.0928 38.3686 14.1183C38.4498 14.1442 38.5303 14.1723 38.6101 14.2018C38.6304 14.2093 38.6507 14.2168 38.6709 14.2245C38.6888 14.2314 38.7067 14.2383 38.7246 14.2454C38.7489 14.255 38.7733 14.2645 38.7975 14.2744L38.8269 14.2867C38.8523 14.2972 38.8774 14.3084 38.9026 14.3193C38.9158 14.3251 38.9291 14.3307 38.9423 14.3366C38.9737 14.3505 39.005 14.3647 39.0362 14.3792C39.0556 14.3883 39.0752 14.3972 39.0946 14.4064C39.1162 14.4168 39.1375 14.4276 39.159 14.4382C39.1838 14.4504 39.2087 14.4624 39.2333 14.475C39.2621 14.4897 39.2907 14.5047 39.3193 14.5199C39.3325 14.5269 39.3457 14.5341 39.359 14.5412C39.3879 14.5569 39.4167 14.5727 39.4454 14.5889C39.466 14.6005 39.4865 14.6124 39.507 14.6242C39.5244 14.6343 39.5417 14.6444 39.5589 14.6546C39.5877 14.6717 39.6164 14.6889 39.6449 14.7064C39.6583 14.7146 39.6717 14.723 39.685 14.7313C39.7139 14.7494 39.7428 14.7676 39.7714 14.7862C39.7946 14.8013 39.8176 14.8167 39.8406 14.8321C39.8587 14.8442 39.8768 14.8565 39.8948 14.8688C39.9157 14.8832 39.9366 14.8978 39.9574 14.9124C39.9809 14.9289 40.0046 14.9454 40.0279 14.9623C40.047 14.9762 40.0659 14.9904 40.0849 15.0045C40.1066 15.0206 40.1283 15.0367 40.1498 15.0531C40.1707 15.0689 40.1913 15.085 40.212 15.1012C40.2329 15.1175 40.2538 15.134 40.2746 15.1506C40.2889 15.1622 40.3032 15.1739 40.3175 15.1855C40.3411 15.2048 40.3647 15.224 40.3881 15.2436C40.4105 15.2625 40.4327 15.2816 40.4549 15.3008C40.4738 15.3172 40.4926 15.3337 40.5114 15.3503C40.5739 15.4055 40.6354 15.4621 40.6959 15.52C40.7146 15.5379 40.7334 15.5558 40.752 15.574C40.7638 15.5856 40.7757 15.5972 40.7875 15.6089C40.8119 15.6332 40.8362 15.6577 40.8603 15.6824C40.8785 15.701 40.8966 15.7198 40.9145 15.7387C40.9296 15.7545 40.9445 15.7704 40.9594 15.7863C40.9824 15.811 41.0053 15.8357 41.028 15.8607C41.0399 15.8738 41.0518 15.887 41.0635 15.9002C41.1202 15.9637 41.1758 16.0285 41.2303 16.0944C41.2493 16.1174 41.2681 16.1406 41.2868 16.1639C41.2987 16.1785 41.3106 16.1931 41.3223 16.2079C41.3422 16.2329 41.3617 16.2583 41.3812 16.2836C41.3981 16.3055 41.415 16.3273 41.4317 16.3494C41.445 16.3672 41.4582 16.3851 41.4714 16.403C41.4881 16.4257 41.5048 16.4485 41.5213 16.4715C41.5373 16.4938 41.5532 16.5162 41.569 16.5387C41.5853 16.562 41.6015 16.5855 41.6176 16.609C41.6305 16.6279 41.6431 16.6471 41.6559 16.6662C41.7037 16.7377 41.751 16.8099 41.7965 16.8835C41.8101 16.9055 41.8233 16.9276 41.8367 16.9498C41.8528 16.9766 41.8689 17.0035 41.8848 17.0305C41.8919 17.0427 41.8987 17.0551 41.9058 17.0673C41.9518 17.1469 41.9966 17.2274 42.0399 17.3091C42.0539 17.3358 42.0677 17.3626 42.0814 17.3895C42.0924 17.4107 42.1034 17.432 42.1141 17.4534C42.1273 17.4798 42.14 17.5063 42.1529 17.5329C42.1645 17.5567 42.1761 17.5805 42.1875 17.6045C42.1965 17.6235 42.2053 17.6426 42.2141 17.6617C42.2528 17.7452 42.2904 17.8295 42.3262 17.9149C42.3339 17.9331 42.3411 17.9515 42.3486 17.9698C42.3606 17.9991 42.373 18.0283 42.3846 18.0579C42.3951 18.0843 42.4048 18.1111 42.415 18.1377C42.5432 18.4732 42.6496 18.8219 42.7317 19.1818C42.7362 19.2016 42.7409 19.2214 42.7452 19.2413C42.8671 19.7956 42.9321 20.3756 42.9321 20.9728C42.9321 21.8798 42.8029 22.8355 42.5827 23.8075C42.5388 24.0009 42.492 24.1951 42.4411 24.3896C42.2604 25.0814 42.0371 25.778 41.7848 26.4679C41.6877 26.7335 41.5862 26.9981 41.4812 27.261C41.2603 27.814 41.0224 28.3592 40.7767 28.8914C40.7428 28.9648 40.71 29.0386 40.6758 29.1115C40.5938 29.2863 40.5101 29.4592 40.4264 29.6306H43.8547C43.9868 29.6306 44.0939 29.5265 44.0939 29.3982V16.7233L37.7146 5.07667L29.2291 16.7937ZM36.6696 18.0501C35.0708 18.0501 33.7748 19.309 33.7748 20.8621C33.7748 22.4152 35.0707 23.6745 36.6696 23.6745C38.2686 23.6745 39.5645 22.4152 39.5645 20.8621C39.5645 19.309 38.2685 18.0501 36.6696 18.0501Z" fill="black"/>
</svg>
