<svg width="24" height="24" viewBox="0 0 24 24" fill="none" xmlns="http://www.w3.org/2000/svg">
<path d="M2.62507 12.0013H4.50007M12.0001 4.50128V2.62628V4.50128ZM12.0001 21.3763V19.5013V21.3763ZM12.0001 5.25128C10.665 5.25128 9.36 5.64716 8.24997 6.38886C7.13994 7.13056 6.27477 8.18477 5.76388 9.41817C5.25299 10.6516 5.11932 12.0088 5.37977 13.3181C5.64022 14.6275 6.28309 15.8302 7.2271 16.7743C8.1711 17.7183 9.37384 18.3611 10.6832 18.6216C11.9926 18.882 13.3498 18.7484 14.5832 18.2375C15.8166 17.7266 16.8708 16.8614 17.6125 15.7514C18.3542 14.6413 18.7501 13.3363 18.7501 12.0013C18.7501 10.2111 18.0389 8.49418 16.773 7.22831C15.5072 5.96244 13.7903 5.25128 12.0001 5.25128ZM19.5001 12.0013H21.3751H19.5001Z" stroke="black" stroke-width="2.25" stroke-linecap="round" stroke-linejoin="round"/>
</svg>
