<svg width="24" height="25" viewBox="0 0 24 25" fill="none" xmlns="http://www.w3.org/2000/svg">
<path d="M19.135 0C21.8219 0.000135805 24.0002 2.17833 24.0002 4.86523C24.0002 7.55211 21.8219 9.73033 19.135 9.73047C16.448 9.73047 14.2698 7.5522 14.2698 4.86523C14.2698 2.17824 16.448 0 19.135 0ZM20.1536 1.05078C20.1383 1.04333 19.7736 0.868718 19.7307 1.15137C19.7244 1.19316 19.7214 1.23806 19.72 1.28418C19.7198 1.2892 19.7191 1.29476 19.719 1.2998C19.7138 1.5 19.7258 1.75135 19.7258 1.8291C19.7258 1.90728 19.6926 2.33496 19.6926 2.33496L19.0647 6.23438C18.7923 6.05615 18.4346 5.95975 18.05 5.9873C17.2555 6.04424 16.648 6.60601 16.6936 7.24219C16.7394 7.8782 17.4207 8.34696 18.2151 8.29004C18.912 8.2401 19.4652 7.80193 19.5598 7.26562C19.56 7.26431 19.5606 7.26304 19.5608 7.26172C19.5668 7.22669 19.5705 7.19105 19.5725 7.15527L19.635 6.61133L20.3039 2.08984C20.5562 2.20813 20.8539 2.37006 21.0871 2.56738C21.5927 2.99516 22.1683 4.09526 22.2502 4.08984C22.3315 4.08224 22.2496 3.40207 22.176 3.07324C22.1023 2.74391 21.9247 2.33449 21.6702 2.02344C21.4155 1.7124 20.8537 1.40137 20.8537 1.40137C20.6981 1.31689 20.1536 1.05078 20.1536 1.05078Z" fill="black"/>
<path d="M20.0609 10.1454C21.1049 9.94299 22.0389 9.4328 22.7649 8.71307C22.8282 9.13968 22.861 9.57611 22.861 10.0201C22.861 14.9082 18.8841 18.8852 13.9959 18.8852C12.1284 18.887 10.3085 18.2959 8.79842 17.197L1.97867 24.0156L0.000337601 22.0373L6.81898 15.2176C5.72013 13.7075 5.12901 11.8876 5.13081 10.0201C5.13081 5.13193 9.1078 1.15494 13.9959 1.15494C14.4407 1.15494 14.8779 1.18786 15.3052 1.2514C14.5853 1.97722 14.0749 2.91117 13.8722 3.955C13.1213 3.97039 12.3759 4.12519 11.6749 4.41556C10.5666 4.87473 9.61921 5.65228 8.95273 6.64988C8.28626 7.64748 7.93059 8.82031 7.9307 10.0201C7.93259 11.6281 8.57221 13.1697 9.70925 14.3067C10.8463 15.4438 12.3879 16.0834 13.9959 16.0853C15.1957 16.0854 16.3685 15.7297 17.3661 15.0632C18.3637 14.3968 19.1412 13.4494 19.6004 12.341C19.8906 11.6406 20.0454 10.8958 20.0609 10.1454Z" fill="black"/>
</svg>
