<svg width="24" height="24" viewBox="0 0 24 24" fill="none" xmlns="http://www.w3.org/2000/svg">
<path d="M16.5 0.750057H7.50003C6.70465 0.750926 5.94209 1.06728 5.37967 1.6297C4.81725 2.19212 4.5009 2.95467 4.50003 3.75006V15.7501C4.5009 16.5454 4.81725 17.308 5.37967 17.8704C5.94209 18.4328 6.70465 18.7492 7.50003 18.7501H16.5C17.2954 18.7492 18.058 18.4328 18.6204 17.8704C19.1828 17.308 19.4992 16.5454 19.5 15.7501V3.75006C19.4992 2.95467 19.1828 2.19212 18.6204 1.6297C18.058 1.06728 17.2954 0.750926 16.5 0.750057ZM9.75003 3.00006H14.25C14.4489 3.00006 14.6397 3.07908 14.7804 3.21973C14.921 3.36038 15 3.55115 15 3.75006C15 3.94897 14.921 4.13974 14.7804 4.28039C14.6397 4.42104 14.4489 4.50006 14.25 4.50006H9.75003C9.55112 4.50006 9.36035 4.42104 9.2197 4.28039C9.07905 4.13974 9.00003 3.94897 9.00003 3.75006C9.00003 3.55115 9.07905 3.36038 9.2197 3.21973C9.36035 3.07908 9.55112 3.00006 9.75003 3.00006ZM8.25003 16.5001C7.95336 16.5001 7.66335 16.4121 7.41668 16.2473C7.17 16.0824 6.97774 15.8482 6.86421 15.5741C6.75068 15.3 6.72098 14.9984 6.77885 14.7074C6.83673 14.4165 6.97959 14.1492 7.18937 13.9394C7.39915 13.7296 7.66642 13.5868 7.9574 13.5289C8.24837 13.471 8.54997 13.5007 8.82406 13.6142C9.09815 13.7278 9.33241 13.92 9.49724 14.1667C9.66206 14.4134 9.75003 14.7034 9.75003 15.0001C9.75003 15.3979 9.592 15.7794 9.31069 16.0607C9.02939 16.342 8.64786 16.5001 8.25003 16.5001ZM15.75 16.5001C15.4534 16.5001 15.1634 16.4121 14.9167 16.2473C14.67 16.0824 14.4777 15.8482 14.3642 15.5741C14.2507 15.3 14.221 14.9984 14.2789 14.7074C14.3367 14.4165 14.4796 14.1492 14.6894 13.9394C14.8992 13.7296 15.1664 13.5868 15.4574 13.5289C15.7484 13.471 16.05 13.5007 16.3241 13.6142C16.5981 13.7278 16.8324 13.92 16.9972 14.1667C17.1621 14.4134 17.25 14.7034 17.25 15.0001C17.25 15.3979 17.092 15.7794 16.8107 16.0607C16.5294 16.342 16.1479 16.5001 15.75 16.5001ZM18 9.00006C18 9.19897 17.921 9.38974 17.7804 9.53039C17.6397 9.67104 17.4489 9.75006 17.25 9.75006H6.75003C6.55112 9.75006 6.36035 9.67104 6.2197 9.53039C6.07905 9.38974 6.00003 9.19897 6.00003 9.00006V7.50006C6.00003 7.30115 6.07905 7.11038 6.2197 6.96973C6.36035 6.82908 6.55112 6.75006 6.75003 6.75006H17.25C17.4489 6.75006 17.6397 6.82908 17.7804 6.96973C17.921 7.11038 18 7.30115 18 7.50006V9.00006ZM16.2802 19.7199C16.1384 19.5852 15.9496 19.5112 15.754 19.5137C15.5584 19.5162 15.3716 19.595 15.2333 19.7333C15.095 19.8716 15.0162 20.0585 15.0137 20.254C15.0112 20.4496 15.0852 20.6384 15.2199 20.7802L15.4393 21.0001H8.56081L8.78019 20.7802C8.9149 20.6384 8.9889 20.4496 8.98639 20.254C8.98389 20.0585 8.90509 19.8716 8.76678 19.7333C8.62848 19.595 8.44163 19.5162 8.24606 19.5137C8.05048 19.5112 7.86167 19.5852 7.71988 19.7199L5.46987 21.9699C5.3973 22.0389 5.33926 22.1216 5.29918 22.2134C5.2591 22.3051 5.2378 22.4039 5.23651 22.504C5.23523 22.6041 5.254 22.7035 5.29172 22.7962C5.32944 22.8889 5.38534 22.9732 5.45612 23.044C5.52691 23.1148 5.61115 23.1707 5.70388 23.2084C5.79661 23.2461 5.89596 23.2649 5.99605 23.2636C6.09615 23.2623 6.19498 23.241 6.28672 23.2009C6.37845 23.1608 6.46124 23.1028 6.53019 23.0302L7.06081 22.5001H16.9393L17.4699 23.0302C17.6117 23.1649 17.8005 23.2389 17.9961 23.2364C18.1916 23.2339 18.3785 23.1551 18.5168 23.0168C18.6551 22.8785 18.7339 22.6917 18.7364 22.4961C18.7389 22.3005 18.6649 22.1117 18.5302 21.9699L16.2802 19.7199Z" fill="black"/>
</svg>
