<svg width="28" height="28" viewBox="0 0 28 28" fill="none" xmlns="http://www.w3.org/2000/svg">
<g clip-path="url(#clip0_6025_9720)">
<path d="M4.77567 28H23.2243C26.4183 28 28 26.4183 28 23.2852V4.71483C28 1.58175 26.4183 0 23.2243 0H4.77567C1.59696 0 0 1.56654 0 4.71483V23.2852C0 26.4335 1.59696 28 4.77567 28ZM2.44867 23.1635V4.8365C2.44867 3.25475 3.28517 2.44867 4.80608 2.44867H23.1939C24.6996 2.44867 25.5513 3.25475 25.5513 4.8365V23.1635C25.5513 24.3498 25.0646 25.1103 24.1825 25.3992C22.8593 21.673 18.8441 19.0722 14.0076 19.0722C9.15589 19.0722 5.15589 21.673 3.8327 25.4144C2.93536 25.1103 2.44867 24.3498 2.44867 23.1635ZM14.0076 16.5323C16.9125 16.5627 19.1939 14.0837 19.1939 10.8289C19.1939 7.77186 16.9125 5.24715 14.0076 5.24715C11.1027 5.24715 8.79087 7.77186 8.80608 10.8289C8.82129 14.0837 11.1027 16.5019 14.0076 16.5323Z" fill="black"/>
</g>
<defs>
<clipPath id="clip0_6025_9720">
<rect width="28" height="28" fill="white"/>
</clipPath>
</defs>
</svg>
